HIERARCHY
ROOT Hips
{
	OFFSET 0.00000 0.00000 0.00000
	CHANNELS 6 Xposition Yposition Zposition Zrotation Yrotation Xrotation 
	JOINT LHipJoint
	{
		OFFSET 0 0 0
		CHANNELS 3 Zrotation Yrotation Xrotation
		JOINT LeftHip
		{
			OFFSET 1.61328 -1.70571 0.84375
			CHANNELS 3 Zrotation Yrotation Xrotation
			JOINT LeftKnee
			{
				OFFSET 2.32400 -6.38513 0.00000
				CHANNELS 3 Zrotation Yrotation Xrotation
				JOINT LeftAnkle
				{
					OFFSET 2.58843 -7.11166 0.00000
					CHANNELS 3 Zrotation Yrotation Xrotation
					JOINT LeftToe
					{
						OFFSET 0.17200 -0.47257 2.47970
						CHANNELS 3 Zrotation Yrotation Xrotation
						End Site
						{
							OFFSET 0.00000 -0.00000 1.26912
						}
					}
				}
			}
		}
	}
	JOINT RHipJoint
	{
		OFFSET 0 0 0
		CHANNELS 3 Zrotation Yrotation Xrotation
		JOINT RightHip
		{
			OFFSET -1.49930 -1.70570 0.84375
			CHANNELS 3 Zrotation Yrotation Xrotation
			JOINT RightKnee
			{
				OFFSET -2.30458 -6.33178 0.00000
				CHANNELS 3 Zrotation Yrotation Xrotation
				JOINT RightAnkle
				{
					OFFSET -2.62261 -7.20556 0.00000
					CHANNELS 3 Zrotation Yrotation Xrotation
					JOINT RightToe
					{
						OFFSET -0.18709 -0.51403 2.51340
						CHANNELS 3 Zrotation Yrotation Xrotation
						End Site
						{
							OFFSET -0.00000 -0.00000 1.28858
						}
					}
				}
			}
		}
	}
	JOINT lowerback
	{
		OFFSET 0 0 0
		CHANNELS 3 Zrotation Yrotation Xrotation
		JOINT Chest
		{
			OFFSET -0.03798 2.19274 -0.19881
			CHANNELS 3 Zrotation Yrotation Xrotation
			JOINT Chest2
			{
				OFFSET -0.00024 2.19460 0.05248
				CHANNELS 3 Zrotation Yrotation Xrotation
				JOINT lowerneck
				{
					OFFSET 0 0 0
					CHANNELS 3 Zrotation Yrotation Xrotation
					JOINT Neck
					{
						OFFSET -0.00746 1.82323 0.17286
						CHANNELS 3 Zrotation Yrotation Xrotation
						JOINT Head
						{
							OFFSET 0.11826 1.82121 -0.27841
							CHANNELS 3 Zrotation Yrotation Xrotation
							End Site
							{
								OFFSET 0.03496 1.85543 -0.11495
							}
						}
					}
				}
				JOINT LeftCollar
				{
					OFFSET 0 0 0
					CHANNELS 3 Zrotation Yrotation Xrotation
					JOINT LeftShoulder
					{
						OFFSET 3.71926 0.78840 0.25473
CHANNELS 3 Zrotation Xrotation Yrotation
						JOINT LeftElbow
						{
OFFSET 0 -5.375870 0.000000
CHANNELS 3 Zrotation Xrotation Yrotation
							JOINT LeftWrist
							{
OFFSET 0 -3.359770 0.000000
CHANNELS 3 Zrotation Xrotation Yrotation
								JOINT lhand
								{
									OFFSET 0 0 0
CHANNELS 3 Zrotation Xrotation Yrotation
									JOINT LFingers
									{
OFFSET 0 -0.561860 0.000000
CHANNELS 3 Zrotation Xrotation Yrotation
										End Site
										{
OFFSET 0 -0.452990 0.000000
										}
									}
								}
								JOINT LThumb
								{
OFFSET 0 0.000000 0.000000
CHANNELS 3 Zrotation Xrotation Yrotation
									End Site
									{
OFFSET 0 -0.459900 0.459900
									}
								}
							}
						}
					}
				}
				JOINT RightCollar
				{
					OFFSET 0 0 0
					CHANNELS 3 Zrotation Yrotation Xrotation
					JOINT RightShoulder
					{
						OFFSET -3.65136 0.56074 0.01624
CHANNELS 3 Zrotation Xrotation Yrotation
						JOINT RightElbow
						{
OFFSET 0 -5.228190 0.000000
CHANNELS 3 Zrotation Xrotation Yrotation
							JOINT RightWrist
							{
OFFSET 0 -3.407640 0.000000
CHANNELS 3 Zrotation Xrotation Yrotation
								JOINT rhand
								{
									OFFSET 0 0 0
CHANNELS 3 Zrotation Xrotation Yrotation
									JOINT RFingers
									{
OFFSET 0 -0.583250 0.000000
CHANNELS 3 Zrotation Xrotation Yrotation
										End Site
										{
OFFSET 0 -0.470240 0.000000
										}
									}
								}
								JOINT RThumb
								{
OFFSET 0 0.000000 0.000000
CHANNELS 3 Zrotation Xrotation Yrotation
									End Site
									{
OFFSET 0 -0.477420 0.477420
									}
								}
							}
						}
					}
				}
			}
		}
	}
}
MOTION
Frames: 8
Frame Time: 0.008333333333333333
49.172400 16.532200 -7.408700 -22.779600 -87.949600 23.256700 0.000000 0.000000 0.000000 -17.769300 -0.467300 -9.735800 2.388400 9.632000 27.793100 0.951900 3.262800 -19.882400 0.196500 -2.854400 -7.873600 0.000000 0.000000 0.000000 20.062200 3.162900 -12.453200 -4.058500 -12.237900 36.578700 -2.273800 0.691200 -28.359800 -0.833400 -5.823800 16.273900 0.332100 0.561900 -3.148800 0.365700 0.683200 3.645900 0.245600 0.330600 5.539600 -2.802100 -3.476200 -13.183500 7.892800 -5.342400 11.090000 2.470200 -2.165400 5.814100 0.000000 -0.000000 0.000000 1.701600 -2.831600 -24.716000 13.689400 -22.289000 2.709200 19.291500 -3.916600 -16.651900 0.000000 0.000000 0.000000 -7.125000 0.000000 0.000000 -8.184800 47.394300 0.486700 0.000000 -0.000000 0.000000 -1.222900 -0.504500 18.664600 -13.738300 -22.359300 -2.727700 -21.061400 -1.025600 -7.543800 0.000000 0.000000 0.000000 7.125000 0.000000 -0.000000 4.188700 21.910800 2.329200
49.159178 16.531316 -7.415480 -34.874078 -87.936563 35.226324 0.000000 0.000000 0.000000 -17.298732 -0.389836 -9.721413 2.428236 9.706161 28.030332 0.968660 3.278870 -20.049353 0.197358 -2.860433 -7.890384 0.000000 0.000000 0.000000 20.610143 3.571552 -12.029154 -4.010208 -12.173973 36.350135 -2.302089 0.403174 -28.624587 -0.821003 -5.781403 16.151385 0.507736 0.620534 -3.095574 0.471548 0.746578 3.622332 0.261083 0.366545 5.485342 -2.736502 -3.469933 -13.187414 7.779926 -5.329224 11.095593 2.424947 -2.163904 5.810560 0.000000 0.000000 0.000000 1.815963 -2.842429 -24.858579 13.608515 -22.172322 2.678620 19.276826 -3.883947 -16.560548 0.000000 0.000000 0.000000 -7.125000 0.000000 0.000000 -8.174767 47.297755 0.466518 0.000000 0.000000 0.000000 -1.181382 -0.454683 18.803363 -13.702593 -22.307959 -2.714151 -20.732879 -1.203759 -7.466229 0.000000 0.000000 0.000000 7.125000 0.000000 0.000000 4.427892 22.011611 2.452723
49.153616 16.530300 -7.412773 -38.457725 -87.986817 38.788734 0.000000 0.000000 0.000000 -17.226532 -0.322189 -9.729297 2.440342 9.728627 28.102322 0.975111 3.302391 -20.122557 0.200520 -2.883397 -7.954297 0.000000 0.000000 0.000000 20.688371 3.640385 -11.959804 -4.002753 -12.164138 36.315025 -2.298273 0.394853 -28.603071 -0.819878 -5.777491 16.140199 0.485730 0.627503 -3.016771 0.476260 0.757136 3.621166 0.278056 0.370691 5.438587 -2.770278 -3.423386 -13.283189 7.725338 -5.241416 11.005154 2.420387 -2.125530 5.792612 0.000000 0.000000 0.000000 1.836904 -2.830050 -25.033540 13.634287 -22.209467 2.688338 19.261627 -3.891827 -16.535933 0.000000 0.000000 0.000000 -7.125000 0.000000 0.000000 -8.182604 47.270286 0.461362 0.000000 0.000000 0.000000 -1.198987 -0.510220 19.067476 -13.687156 -22.285721 -2.708380 -20.679246 -1.179362 -7.377908 0.000000 0.000000 0.000000 7.125000 0.000000 0.000000 4.466779 22.108350 2.464546
49.146753 16.531313 -7.409520 -39.473639 -87.988620 39.868608 0.000000 0.000000 0.000000 -17.211478 -0.368641 -9.773822 2.444734 9.736754 28.128301 0.979693 3.320728 -20.174516 0.196727 -2.856327 -7.878941 0.000000 0.000000 0.000000 20.704162 3.670935 -11.996601 -3.999653 -12.160000 36.300279 -2.297227 0.409627 -28.592413 -0.824560 -5.793593 16.186679 0.437335 0.634514 -2.964901 0.433859 0.772908 3.575413 0.261458 0.377907 5.360787 -2.759525 -3.366366 -13.300065 7.727158 -5.166260 11.006510 2.426172 -2.088007 5.791502 0.000000 0.000000 0.000000 1.863147 -2.776922 -25.229367 13.629272 -22.202278 2.686460 19.150531 -4.020000 -16.482705 0.000000 0.000000 0.000000 -7.125000 0.000000 0.000000 -8.272995 47.199991 0.452086 0.000000 0.000000 0.000000 -1.163171 -0.515183 19.180371 -13.638225 -22.215204 -2.689846 -21.409087 -1.275752 -7.449567 0.000000 0.000000 0.000000 7.125000 0.000000 0.000000 3.934555 21.991771 2.179886
49.134217 16.531484 -7.404578 -41.157461 -88.029403 41.656631 0.000000 0.000000 0.000000 -17.227375 -0.464873 -9.793929 2.445447 9.737993 28.132464 0.988753 3.410166 -20.306687 0.193600 -2.833800 -7.816484 0.000000 0.000000 0.000000 20.706768 3.777051 -12.035994 -3.998953 -12.158953 36.296614 -2.299269 0.417741 -28.602447 -0.818391 -5.772358 16.125375 0.432349 0.679410 -3.045883 0.375345 0.835815 3.580695 0.209547 0.410296 5.413470 -2.707828 -3.368304 -13.466617 7.625549 -5.168152 11.105808 2.383468 -2.087648 5.846672 0.000000 0.000000 0.000000 1.879340 -2.799064 -25.307295 13.591428 -22.147561 2.672102 19.190769 -3.926433 -16.451507 0.000000 0.000000 0.000000 -7.125000 0.000000 0.000000 -8.227116 47.173222 0.444084 0.000000 0.000000 0.000000 -1.104106 -0.699806 19.038939 -13.540533 -22.074030 -2.652935 -22.658264 -1.224455 -7.519824 0.000000 0.000000 0.000000 7.125000 0.000000 0.000000 3.024589 21.843301 1.684335
49.115766 16.532311 -7.401322 -42.295536 -88.030875 42.908030 0.000000 0.000000 0.000000 -17.224986 -0.567728 -9.815202 2.446600 9.740189 28.139446 0.995712 3.498202 -20.418883 0.193244 -2.830833 -7.808177 0.000000 0.000000 0.000000 20.730325 3.845589 -12.061790 -3.993922 -12.152344 36.273031 -2.304366 0.428831 -28.631377 -0.818155 -5.771552 16.123002 0.365200 0.704200 -3.238011 0.362278 0.874023 3.547176 0.239056 0.427389 5.487382 -2.714254 -3.382667 -13.567028 7.590432 -5.199669 11.365369 2.369099 -2.098201 5.946183 0.000000 0.000000 0.000000 1.847899 -2.772275 -25.420371 13.467419 -21.968207 2.625521 19.169478 -3.832687 -16.473498 0.000000 0.000000 0.000000 -7.125000 0.000000 0.000000 -8.252844 47.192987 0.449533 0.000000 0.000000 0.000000 -1.232883 -0.778903 19.231538 -13.527222 -22.054834 -2.648011 -22.789861 -1.379942 -7.490880 0.000000 0.000000 0.000000 7.125000 0.000000 0.000000 2.928171 21.866686 1.628969
49.093512 16.531147 -7.396013 -43.805391 -88.004338 44.459204 0.000000 0.000000 0.000000 -17.194216 -0.652051 -9.748041 2.451247 9.748693 28.166726 1.006894 3.560449 -20.555826 0.192947 -2.828699 -7.802305 0.000000 0.000000 0.000000 20.781925 3.853536 -11.999169 -3.987160 -12.143287 36.240821 -2.310907 0.462429 -28.662314 -0.818179 -5.771732 16.123702 0.345884 0.716162 -3.377730 0.363912 0.891442 3.519539 0.254661 0.435568 5.538134 -2.695859 -3.398281 -13.671592 7.618901 -5.235714 11.460548 2.370473 -2.108647 5.996378 0.000000 0.000000 0.000000 1.833207 -2.726417 -25.438714 13.406399 -21.879825 2.602806 19.181926 -3.780232 -16.438834 0.000000 0.000000 0.000000 -7.125000 0.000000 0.000000 -8.232108 47.158908 0.441434 0.000000 0.000000 0.000000 -1.361427 -0.842383 19.434621 -13.566280 -22.111207 -2.662627 -22.482206 -1.632647 -7.364251 0.000000 0.000000 0.000000 7.125000 0.000000 0.000000 3.150497 22.021610 1.741912
49.073750 16.529107 -7.390213 -45.185298 -88.072231 45.815855 0.000000 0.000000 0.000000 -17.242900 -0.635861 -9.629813 2.453096 9.751996 28.177483 1.015576 3.616970 -20.665614 0.195887 -2.849820 -7.860879 0.000000 0.000000 0.000000 20.762317 3.898637 -11.886397 -3.989496 -12.146396 36.251685 -2.318267 0.480048 -28.703113 -0.811822 -5.749580 16.059726 0.313107 0.729826 -3.439053 0.331367 0.914328 3.476467 0.241665 0.446811 5.527928 -2.691024 -3.398943 -13.566826 7.658683 -5.232787 11.296717 2.383787 -2.110126 5.927924 0.000000 0.000000 0.000000 1.894305 -2.619678 -25.482648 13.385322 -21.849176 2.594946 19.180172 -3.780485 -16.470963 0.000000 0.000000 0.000000 -7.125000 0.000000 0.000000 -8.242046 47.191763 0.448715 0.000000 0.000000 0.000000 -1.428924 -0.874839 19.655427 -13.566950 -22.112324 -2.662980 -22.070944 -1.626591 -7.253914 0.000000 0.000000 0.000000 7.125000 0.000000 0.000000 3.449445 22.163982 1.896540
